<?xml version="1.0" encoding="iso-8859-1"?>
<!-- Generator: Adobe Illustrator 17.1.0, SVG Export Plug-In . SVG Version: 6.00 Build 0)  -->
<!DOCTYPE svg PUBLIC "-//W3C//DTD SVG 1.1//EN" "http://www.w3.org/Graphics/SVG/1.1/DTD/svg11.dtd">
<svg version="1.1" id="Capa_1" xmlns="http://www.w3.org/2000/svg" xmlns:xlink="http://www.w3.org/1999/xlink" x="0px" y="0px"
	 viewBox="0 0 337.351 337.351" style="enable-background:new 0 0 337.351 337.351;" xml:space="preserve">
<g>
	<path d="M327.389,206.073c4.089,0.688,7.952-2.074,8.635-6.159c0.88-5.258,1.327-10.647,1.327-16.018
		c0-53.285-43.35-96.635-96.635-96.635s-96.635,43.35-96.635,96.635s43.35,96.635,96.635,96.635
		c16.826,0,33.291-4.369,47.826-12.661l37.907,9.988c2.584,0.682,5.328-0.063,7.214-1.949s2.629-4.634,1.949-7.214l-10.902-41.379
		c-1.056-4.005-5.16-6.4-9.163-5.342c-4.006,1.055-6.397,5.158-5.342,9.163l7.624,28.938l-28.5-7.51
		c-1.986-0.524-4.1-0.209-5.847,0.868c-12.839,7.915-27.627,12.098-42.766,12.098c-45.014,0-81.635-36.621-81.635-81.635
		s36.621-81.635,81.635-81.635s81.635,36.621,81.635,81.635c0,4.543-0.377,9.1-1.121,13.542
		C320.546,201.522,323.303,205.389,327.389,206.073z"/>
	<path d="M187.683,283.211c-15.32,6.479-31.598,9.765-48.382,9.765c-23.052,0-45.57-6.371-65.121-18.422
		c-1.748-1.079-3.861-1.394-5.847-0.868l-48.099,12.673l12.843-48.744c0.511-1.94,0.224-4.005-0.798-5.732
		C20.975,212.789,15,190.932,15,168.675c0-68.54,55.761-124.301,124.301-124.301c29.493,0,58.086,10.51,80.512,29.595
		c3.155,2.685,7.888,2.303,10.573-0.851c2.684-3.155,2.303-7.888-0.851-10.573c-25.136-21.391-57.182-33.171-90.233-33.171
		C62.49,29.374,0,91.864,0,168.675c0,23.882,6.141,47.358,17.787,68.102L2.452,294.979c-0.68,2.581,0.063,5.328,1.949,7.214
		s4.632,2.63,7.214,1.949l57.482-15.146c21.259,12.428,45.458,18.98,70.204,18.98c18.802,0,37.046-3.684,54.225-10.95
		c3.815-1.614,5.6-6.014,3.986-9.829C195.898,283.382,191.497,281.599,187.683,283.211z"/>
</g>
<g>
</g>
<g>
</g>
<g>
</g>
<g>
</g>
<g>
</g>
<g>
</g>
<g>
</g>
<g>
</g>
<g>
</g>
<g>
</g>
<g>
</g>
<g>
</g>
<g>
</g>
<g>
</g>
<g>
</g>
</svg>
