<?xml version="1.0" encoding="iso-8859-1"?>
<!-- Generator: Adobe Illustrator 19.0.0, SVG Export Plug-In . SVG Version: 6.00 Build 0)  -->
<svg version="1.1" id="Capa_1" xmlns="http://www.w3.org/2000/svg" xmlns:xlink="http://www.w3.org/1999/xlink" x="0px" y="0px"
	 viewBox="0 0 42.878 42.878" style="enable-background:new 0 0 42.878 42.878;" xml:space="preserve">
<g>
	<path d="M29.326,1.93c-0.336-0.17-0.74-0.137-1.044,0.086l-14.61,10.747H1c-0.552,0-1,0.448-1,1c0,0.552,0.448,1,1,1h12v8.442
		c0,0.552,0.448,1,1,1c0.552,0,1-0.448,1-1v-8.936l12.875-9.47v33.28l-13.282-9.77c-0.172-0.126-0.379-0.194-0.593-0.194H2v-7.775
		c0-0.552-0.448-1-1-1c-0.552,0-1,0.448-1,1v8.775c0,0.552,0.448,1,1,1h12.672l14.61,10.747c0.175,0.128,0.383,0.194,0.593,0.194
		c0.154,0,0.309-0.036,0.451-0.108c0.337-0.17,0.549-0.515,0.549-0.892V2.822C29.875,2.445,29.663,2.099,29.326,1.93z"/>
	<path d="M35.054,15.26c-0.391-0.391-1.023-0.391-1.414,0c-0.391,0.391-0.391,1.024,0,1.414c1.273,1.273,1.974,2.965,1.974,4.765
		c0,1.8-0.701,3.492-1.974,4.765c-0.391,0.391-0.391,1.023,0,1.414c0.195,0.195,0.451,0.293,0.707,0.293
		c0.256,0,0.512-0.098,0.707-0.293c1.651-1.65,2.56-3.845,2.56-6.179C37.614,19.104,36.705,16.91,35.054,15.26z"/>
	<path d="M38.781,11.533c-0.391-0.391-1.023-0.391-1.414,0c-0.391,0.391-0.391,1.023,0,1.414c4.683,4.683,4.683,12.302,0,16.984
		c-0.391,0.391-0.391,1.024,0,1.414c0.195,0.195,0.451,0.293,0.707,0.293s0.512-0.098,0.707-0.293
		C44.244,25.883,44.244,16.995,38.781,11.533z"/>
</g>
<g>
</g>
<g>
</g>
<g>
</g>
<g>
</g>
<g>
</g>
<g>
</g>
<g>
</g>
<g>
</g>
<g>
</g>
<g>
</g>
<g>
</g>
<g>
</g>
<g>
</g>
<g>
</g>
<g>
</g>
</svg>
